<svg version="1.1" id="Layer_1" xmlns="http://www.w3.org/2000/svg" xmlns:xlink="http://www.w3.org/1999/xlink"
    width="100%" height="100%" viewBox="0 0 512 512" style="enable-background:new 0 0 512 512;" xml:space="preserve">
    <path style="fill:#9D2217;" d="M281.25,184.284h-50.5c-9.256,0-16.761,7.504-16.761,16.761v294.194
        c0,6.475,3.731,12.373,9.583,15.146c2.287,1.084,4.739,1.615,7.176,1.615c3.798,0,7.561-1.289,10.615-3.788l50.5-41.308
        c3.892-3.183,6.149-7.946,6.149-12.973V201.045C298.011,191.789,290.507,184.284,281.25,184.284z"/>
    <g>
        <path style="fill:#690812;" d="M281.25,184.284h-25.249v311.954l35.861-29.334c3.892-3.183,6.149-7.946,6.149-12.973V201.045
            C298.011,191.789,290.507,184.284,281.25,184.284z"/>
    
    </g>
    <path style="fill:#DE3205;" d="M454.447,56.864c-2.734-5.95-8.683-9.764-15.231-9.764H72.784c-6.548,0-12.497,3.814-15.23,9.764
        s-1.752,12.947,2.514,17.916l183.216,213.385c3.185,3.709,7.828,5.843,12.716,5.843s9.532-2.134,12.717-5.843L451.933,74.78
        C456.198,69.812,457.18,62.814,454.447,56.864z"/>
    <path style="fill:#9D2217;" d="M439.216,47.1H256.001v246.906c4.888,0,9.532-2.134,12.717-5.843L451.933,74.78
        c4.265-4.968,5.247-11.965,2.514-17.916C451.713,50.914,445.764,47.1,439.216,47.1z"/>
    <path style="fill:#E25F3F;" d="M42.672,80.622h426.656c9.256,0,16.761-7.504,16.761-16.761v-47.1C486.089,7.504,478.585,0,469.328,0
        H42.672c-9.256,0-16.761,7.504-16.761,16.761v47.1C25.911,73.118,33.416,80.622,42.672,80.622z"/>
    <path style="fill:#EA9277;" d="M42.672,80.622H256V0H42.672c-9.256,0-16.761,7.504-16.761,16.761v47.1
        C25.911,73.118,33.416,80.622,42.672,80.622z"/>
</svg>
